<?xml version="1.0" encoding="UTF-8"?>
<!DOCTYPE svg PUBLIC "-//W3C//DTD SVG 1.0//EN" "http://www.w3.org/TR/2001/REC-SVG-20010904/DTD/svg10.dtd">
<!-- Creator: CorelDRAW -->
<svg xmlns="http://www.w3.org/2000/svg" xml:space="preserve" width="5.562mm" height="5.5682mm" version="1.0" style="shape-rendering:geometricPrecision; text-rendering:geometricPrecision; image-rendering:optimizeQuality; fill-rule:evenodd; clip-rule:evenodd"
viewBox="0 0 2.83 2.84"
 xmlns:xlink="http://www.w3.org/1999/xlink"
 xmlns:xodm="http://www.corel.com/coreldraw/odm/2003">
 <defs>
  <style type="text/css">
   <![CDATA[
    .fil0 {fill:#D0D0D0}
   ]]>
  </style>
 </defs>
 <g id="Capa_x0020_1">
  <metadata id="CorelCorpID_0Corel-Layer"/>
  <path class="fil0" d="M1.33 2.29c-0.42,0 -0.73,-0.22 -0.9,-0.55 -0.15,-0.31 -0.13,-0.72 0.08,-0.99 0.08,-0.11 0.19,-0.22 0.3,-0.28 0.2,-0.11 0.3,-0.13 0.55,-0.13 0.47,0 0.93,0.44 0.93,0.96 0,0.18 -0.02,0.27 -0.09,0.42 -0.04,0.09 -0.12,0.21 -0.2,0.29 -0.02,0.02 -0.04,0.03 -0.06,0.05 -0.02,0.02 -0.04,0.04 -0.07,0.05 -0.04,0.03 -0.1,0.07 -0.15,0.09 -0.13,0.05 -0.23,0.09 -0.39,0.09l0 0zm-0.08 0.33c0.21,0 0.34,-0.01 0.53,-0.09 0.06,-0.02 0.12,-0.05 0.17,-0.08l0.15 -0.1c0.04,0.03 0.32,0.31 0.41,0.41 0.08,0.08 0.08,0.08 0.17,0.08 0.05,0 0.14,-0.07 0.14,-0.15 0,-0.09 -0,-0.09 -0.07,-0.16 -0.09,-0.09 -0.38,-0.38 -0.41,-0.41 0.01,-0.03 0.01,-0.02 0.02,-0.04 0.14,-0.19 0.25,-0.46 0.25,-0.7 0,-0.26 -0.03,-0.46 -0.16,-0.68l-0.04 -0.08c-0.05,-0.07 -0.1,-0.14 -0.16,-0.2 -0.08,-0.08 -0.17,-0.16 -0.27,-0.22 -0.29,-0.16 -0.62,-0.24 -0.98,-0.15 -0.19,0.05 -0.34,0.12 -0.49,0.23 -0.07,0.05 -0.05,0.04 -0.1,0.09l-0.06 0.06c-0.11,0.13 -0.09,0.09 -0.18,0.24 -0.22,0.35 -0.22,0.81 -0.07,1.17 0.14,0.33 0.41,0.59 0.74,0.71 0.11,0.04 0.26,0.08 0.41,0.08l-0 0z"/>
 </g>
</svg>
