<svg width="17" height="20" viewBox="0 0 17 20" fill="none" xmlns="http://www.w3.org/2000/svg">
<path d="M1.00012 9.24841C1.00012 8.69613 1.44784 8.24841 2.00012 8.24841H15.0008C15.5531 8.24841 16.0008 8.69613 16.0008 9.24841V18.0007C16.0008 18.553 15.5531 19.0007 15.0008 19.0007H2.00012C1.44784 19.0007 1.00012 18.553 1.00012 18.0007V9.24841Z" stroke="black" stroke-width="1.5" stroke-linecap="round"/>
<path d="M12.9997 8.24846V5.49978C12.9997 3.01462 10.9851 1 8.4999 1C6.01474 1 4.00012 3.01462 4.00012 5.49978V8.24846" stroke="black" stroke-width="1.5" stroke-linecap="round"/>
<path d="M9.99963 12.9244C9.99963 13.7529 9.32806 14.4244 8.49963 14.4244C7.67121 14.4244 6.99963 13.7529 6.99963 12.9244C6.99963 12.096 7.67121 11.4244 8.49963 11.4244C9.32806 11.4244 9.99963 12.096 9.99963 12.9244Z" fill="black"/>
<path d="M8.54358 15.8248V13.7443" stroke="black" stroke-width="1.5" stroke-linecap="round"/>
</svg>
